DataType=double
version=3
OpenSimVersion=4.5-2023-11-26-efcdfd3eb
endheader
time	EMG01_right_gast_med	EMG02_right_glut_max	EMG03_left_gast_med	EMG04_left_glut_max	EMG05_right_glut_med	EMG06_right_bic_fem	EMG07_right_rect_fem	EMG08_right_vast_lat	EMG09_right_vast_med	EMG10_right_tens_fasc_lat	EMG11_left_glut_med	EMG12_left_bic_fem	EMG13_left_rect_fem	EMG14_left_vast_lat	EMG15_left_vast_med	EMG16_left_tens_fasc_lat
0.53	0.4143080423097459	-0.004907520933072634	0.02333599238224278	0.06747708823763775	0.04880034352624989	0.06904755255977936	0.04093997523747529	0.009682653903206242	0.007397914182896977	0.0175849503567464	0.1158543409662605	0.0860460857350587	0.08827063280634964	0.0797448869008399	0.03852308267044637	0.07297921508776518
0.54	0.4049972642568387	-0.001535169105557261	0.02585333208772697	0.06593704846255891	0.05493617457306572	0.06828654953755135	0.04398234990152995	0.01041979533118417	0.007796639189119859	0.02090933083602265	0.1203839665637714	0.08819361024678737	0.094678853825792	0.084534590257358	0.04390889973934949	0.07754194717798404
0.55	0.3941416638019338	0.002702097579917819	0.02851374225860213	0.0645919059656396	0.0614846296775995	0.06737543287703247	0.04708021779442221	0.01125971443204087	0.008396178684057216	0.02491817434801552	0.1248926412683551	0.0900312136966686	0.1010412666670065	0.08923684760676272	0.04955713479739347	0.08281532932081782
0.5600000000000001	0.3818272244240797	0.00779456999488703	0.03130586203910356	0.0634416129291806	0.06838017087744956	0.06631496548888245	0.05019400774381434	0.01219491806299226	0.009179618458626139	0.02958258025143316	0.1293565418670253	0.09154113990436152	0.1072967397981484	0.09380390983747344	0.05542694742191061	0.0887967776053846
0.57	0.3681573719010848	0.01372511133354949	0.03421905492958903	0.06248425641141464	0.0755516087544667	0.06510996344597424	0.05328425148787026	0.01321708423164406	0.01012865149027864	0.03486975192641351	0.1337511211532119	0.09270917685383044	0.1133834215385759	0.09818841720986253	0.06147292776564783	0.09547546401450228
0.58	0.3532515094710008	0.02046878255030524	0.03724374721436314	0.06171612489399913	0.08292273832293308	0.06376900635355476	0.05631210618591067	0.01431705154702571	0.01122372148862614	0.04074298616618777	0.1380512990925637	0.09352487314667016	0.1192396537863392	0.1023440723032116	0.06764549212282323	0.102832152987943
0.59	0.3372432250172318	0.02799251884947436	0.04037176656820491	0.06113178906458155	0.09041308910753228	0.06230409655909053	0.0592398681277093	0.01548481739277366	0.0124441760860041	0.04716165914347611	0.1422316848005619	0.09398168218132741	0.1248049226476513	0.1062263001495186	0.07389136800787198	0.1108391284722741
0.6	0.3202781955456157	0.03625487486139885	0.04359667299054316	0.06072419678732582	0.0979387894005706	0.06073028284039221	0.06203146650687859	0.01670954810153716	0.01376843029823309	0.05408122012141311	0.1462668276481215	0.09407703363899621	0.1300208286240301	0.109792882984689	0.08015416609203768	0.1194602165574388
0.61	0.302511827504353	0.04520585639992676	0.0469140735159246	0.06048478145179526	0.1054135409553687	0.0590652643966589	0.06465292466936844	0.01797960405932189	0.01517414065539564	0.06145320509291277	0.1501314931654199	0.09381233554159245	0.1348320564503264	0.1130045571957852	0.08637503433945623	0.1286509075061225
0.62	0.284106688177455	0.05478685669162167	0.05032191212506306	0.06040358237189571	0.1127496960496362	0.05732898982531064	0.06707277577784682	0.01928258222288019	0.01663839023989667	0.06922528251651504	0.1538009573059576	0.09319291283214656	0.1391873235962154	0.1158255610858402	0.09249338772253302	0.1383585797031424
0.63	0.265229799492013	0.06493071460613893	0.05382072666763983	0.06046937568465428	0.1198594240670638	0.05554326383872812	0.06926242143481831	0.02060537803157073	0.0181378848184086	0.07734134238688242	0.1572513119950573	0.09222788982323865	0.1430402876953363	0.118224124788443	0.09844770485495523	0.1485228278109517
0.64	0.2460498755983744	0.07556191155022363	0.05741386462391487	0.06066981385047081	0.1266559496954945	0.0537313721841334	0.07119642597851673	0.02193426820973399	0.01964916029009632	0.08574163851705767	0.1604597756262317	0.09093002368961965	0.1463503954859523	0.1201728979840221	0.1041763805918179	0.1590758985501958
